<?xml version="1.0" encoding="UTF-8"?>
<svg id="Layer_1" data-name="Layer 1" xmlns="http://www.w3.org/2000/svg" viewBox="0 0 310 120">
  <defs>
    <style>
      .cls-1 {
        fill: #fff;
      }

      .cls-2 {
        fill: red;
      }
    </style>
  </defs>
  <g>
    <g>
      <path class="cls-2" d="m21.09,69.56l46.24,46.24,62.73-62.73-8.97-8.97s-9.18,17.18-54.53,11.96c0,0-31.41-4.77-45.47,13.5Z"/>
      <path d="m113.97,50.44L67.73,4.2,5,66.93l8.97,8.97s9.18-17.18,54.53-11.96c0,0,31.41,4.77,45.47-13.5Z"/>
    </g>
    <path class="cls-1" d="m66.25,29.14l-7.07,24.47c4.75-7.15,8.31-12.03,10.67-14.66,3.46-3.8,6.45-6.39,8.96-7.76s4.87-2.05,7.07-2.05c1.98,0,3.67.73,5.08,2.2,1.41,1.46,2.11,3.37,2.11,5.73,0,2.13-.46,4.72-1.37,7.76l-7.3,24.36c-.61,2.13-.91,3.52-.91,4.16,0,.38.14.72.43,1.03.29.3.58.46.88.46.38,0,.78-.15,1.2-.46,1.33-1.1,2.68-2.66,4.05-4.68.34-.53.89-1.33,1.65-2.4l2.17,1.31c-5.59,9.39-11.46,14.09-17.62,14.09-2.36,0-4.2-.61-5.53-1.83-1.33-1.22-2-2.74-2-4.56,0-1.6.46-3.97,1.37-7.13l7.13-24.36c.49-1.6.74-2.78.74-3.54,0-.42-.17-.79-.51-1.11-.34-.32-.74-.48-1.2-.48-1.45,0-3.19.99-5.25,2.97-5.25,5.02-10.32,12.49-15.23,22.42l-4.68,16.94h-14.54l10.67-36.62c1.03-3.61,1.54-6.18,1.54-7.7,0-.65-.15-1.19-.46-1.63-.3-.44-.8-.78-1.48-1.03-.68-.25-1.98-.37-3.88-.37l.63-2.17,19.22-3.37h3.48Z"/>
  </g>
  <g>
    <path d="m131.68,52.95h9.77l12.74,18.09v-18.09h9.86v32.69h-9.86l-12.67-17.95v17.95h-9.84v-32.69Z"/>
    <path d="m154.15,52.95h28.03v6.98h-17.55v5.2h16.28v6.67h-16.28v6.44h18.05v7.4h-28.54v-32.69Z"/>
    <path d="m180.47,52.95h9.93l3.58,18.3,5.23-18.3h9.9l5.25,18.28,3.58-18.28h9.88l-7.46,32.69h-10.26l-5.94-20.58-5.91,20.58h-10.26l-7.53-32.69Z"/>
    <path d="m234.3,80.24h-11.87l-1.65,5.4h-10.68l12.72-32.69h11.41l12.72,32.69h-10.95l-1.69-5.4Zm-2.17-7.07l-3.74-11.75-3.7,11.75h7.43Z"/>
    <path class="cls-2" d="m260.3,73.24v-6.8h16.16v13.94c-3.1,2.04-5.83,3.42-8.21,4.16-2.38.74-5.2,1.1-8.46,1.1-4.02,0-7.29-.66-9.82-1.98-2.53-1.32-4.49-3.29-5.89-5.91-1.39-2.62-2.09-5.62-2.09-9.01,0-3.57.76-6.67,2.28-9.31,1.53-2.64,3.76-4.64,6.7-6.01,2.29-1.06,5.38-1.58,9.26-1.58s6.54.33,8.39.98c4.64,1.64,6.65,5.76,7.9,10.07,0,0-10.62-.05-10.62-.05-1.57-4.67-8.38-4.9-11.39-1.51-1.36,1.54-2.04,3.97-2.04,7.3,0,3.54.69,6.07,2.07,7.58,1.38,1.52,3.3,2.27,5.76,2.27,1.17,0,2.28-.16,3.35-.49s2.28-.88,3.65-1.67v-3.08h-6.99Z"/>
    <path d="m276.46,52.95h28.03v6.98h-17.55v5.2h16.28v6.67h-16.28v6.44h18.05v7.4h-28.54v-32.69Z"/>
  </g>
</svg>